<?xml version="1.0" encoding="UTF-8"?>
<svg id="Layer_1" data-name="Layer 1" xmlns="http://www.w3.org/2000/svg" xmlns:xlink="http://www.w3.org/1999/xlink" viewBox="0 0 1000 1000">
  <defs>
    <style>
      .cls-1 {
        fill: url(#linear-gradient-2);
      }

      .cls-2 {
        fill: #0b0b0c;
      }

      .cls-3 {
        fill: #66cbe3;
      }

      .cls-4 {
        fill: url(#linear-gradient);
      }
    </style>
    <linearGradient id="linear-gradient" x1="316.59" y1="500" x2="683.41" y2="500" gradientUnits="userSpaceOnUse">
      <stop offset="0" stop-color="#4e96d1"/>
      <stop offset=".55" stop-color="#5e62ac"/>
      <stop offset="1" stop-color="#7dd2f1"/>
    </linearGradient>
    <linearGradient id="linear-gradient-2" x1="408.98" y1="591.28" x2="591.54" y2="408.72" xlink:href="#linear-gradient"/>
  </defs>
  <rect class="cls-2" x="224.76" y="225.32" width="550.48" height="549.36" rx="158.08" ry="158.08"/>
  <path class="cls-4" d="M490.17,683.15c-1.77-.1-3.13-1.56-3.13-3.3h0v-.17h0c.1-1.81,1.66-3.2,3.47-3.13h0c1.76.1,3.12,1.56,3.12,3.32h0v.15h0c-.1,1.77-1.56,3.14-3.3,3.14h0c-.06,0-.12,0-.17-.02ZM506.53,680.02v-.17h0c0-1.74,1.37-3.2,3.13-3.3h0c1.81-.1,3.38,1.29,3.47,3.13h0c.02.06.02.1.02.15h0c0,1.75-1.37,3.22-3.15,3.32h-.17c-1.74,0-3.2-1.37-3.3-3.13ZM470.43,681.05c-1.64-.27-2.8-1.7-2.78-3.3h0c0-.15.02-.33.04-.5h0c.29-1.79,1.99-3.01,3.78-2.72h0c1.64.25,2.8,1.68,2.78,3.28h0c0,.17-.02.35-.04.5h0c-.27,1.62-1.66,2.78-3.26,2.78h0c-.17,0-.35-.02-.52-.04ZM525.96,678.29c-.02-.17-.04-.33-.04-.5h0c-.02-1.6,1.14-3.03,2.76-3.28h0c1.81-.31,3.51.93,3.8,2.72h0c.02.17.04.33.04.5h0c.02,1.6-1.14,3.01-2.76,3.28h0c-.19.04-.37.06-.54.06h0c-1.58,0-2.99-1.16-3.26-2.78ZM451.02,676.8c-1.45-.41-2.41-1.72-2.41-3.17h0c-.02-.29.04-.6.12-.91h0c.48-1.76,2.3-2.78,4.05-2.29h0c1.47.41,2.41,1.72,2.43,3.16h0c0,.29-.04.6-.12.91h0c-.41,1.47-1.74,2.41-3.18,2.41h0c-.29,0-.6-.04-.89-.11ZM545.08,674.45c-.08-.29-.12-.6-.12-.91h0c0-1.43.96-2.74,2.41-3.14h0c1.76-.5,3.59.54,4.07,2.3h0c.08.29.14.6.12.91h0c0,1.43-.96,2.76-2.41,3.16h0v-.02h0c-.29.1-.6.14-.89.14h0c-1.45,0-2.78-.96-3.18-2.43ZM432.2,670.47c-1.29-.52-2.08-1.76-2.08-3.07h0c0-.41.08-.83.25-1.22h0c.66-1.7,2.58-2.53,4.28-1.85h0c1.29.52,2.08,1.76,2.08,3.09h0c0,.39-.08.81-.25,1.2h0c-.5,1.29-1.76,2.08-3.07,2.08h0c-.41,0-.81-.08-1.22-.23ZM563.68,668.56c-.15-.38-.23-.81-.25-1.2h0c0-1.33.79-2.56,2.08-3.09h0c1.7-.67,3.63.15,4.3,1.83h0c.15.41.23.81.23,1.22h0c0,1.31-.79,2.57-2.08,3.09h0c-.41.15-.81.23-1.22.23h0c-1.31,0-2.57-.79-3.07-2.08ZM414.18,662.14c-1.12-.6-1.76-1.72-1.76-2.89h0c0-.52.12-1.06.39-1.58h0c.85-1.6,2.86-2.22,4.46-1.37h0c1.1.6,1.74,1.72,1.76,2.89h0c0,.54-.12,1.08-.39,1.58h0c-.6,1.12-1.74,1.76-2.91,1.76h0c-.52,0-1.06-.13-1.54-.39ZM581.5,660.69c-.25-.5-.39-1.04-.39-1.58h0c.02-1.18.66-2.3,1.76-2.89h0c1.62-.85,3.61-.23,4.48,1.37h0c.27.5.39,1.04.39,1.58h0c-.02,1.18-.66,2.3-1.76,2.89h0c-.5.25-1.02.39-1.54.39h0c-1.2,0-2.33-.64-2.93-1.76ZM397.16,651.9c-.95-.64-1.45-1.68-1.45-2.74h0c0-.64.17-1.27.56-1.85h0c1.02-1.51,3.09-1.89,4.59-.87h0c.95.64,1.45,1.68,1.45,2.74h0c0,.64-.19,1.27-.58,1.83h0c-.64.95-1.66,1.45-2.72,1.45h0c-.64,0-1.29-.17-1.85-.56ZM598.38,650.93c-.39-.56-.56-1.22-.58-1.85h0c0-1.06.52-2.1,1.47-2.74h0c1.51-1.02,3.55-.64,4.57.87h0c.39.58.58,1.22.58,1.85h0c0,1.06-.5,2.1-1.45,2.74h0c-.58.39-1.22.58-1.85.58h0c-1.06,0-2.1-.52-2.74-1.45ZM381.36,639.88c-.77-.63-1.16-1.56-1.18-2.49h0c0-.77.25-1.54.79-2.16h0c1.18-1.39,3.26-1.56,4.65-.39h0c.75.66,1.16,1.56,1.16,2.49h0c.02.77-.25,1.54-.77,2.16h0c-.66.77-1.58,1.18-2.53,1.18h0c-.75,0-1.51-.27-2.12-.79ZM614.11,639.39c-.52-.63-.79-1.41-.77-2.16h0c0-.93.39-1.85,1.16-2.49h0c1.39-1.18,3.47-1.02,4.65.37h0c.54.64.79,1.41.79,2.18h0c-.02.93-.41,1.83-1.16,2.49h0c-.64.52-1.39.77-2.14.77h0c-.94,0-1.87-.39-2.53-1.16ZM366.93,626.24c-.62-.66-.91-1.47-.91-2.3h0c0-.87.35-1.74,1.02-2.37h0c1.33-1.25,3.41-1.2,4.67.11h0c.62.64.91,1.47.91,2.28h0c0,.87-.35,1.74-1.02,2.39h0c-.64.6-1.45.91-2.28.91h0c-.87,0-1.74-.35-2.39-1.02ZM628.52,626.24c-.69-.64-1.04-1.51-1.04-2.37h0c0-.83.29-1.64.91-2.29h0c1.25-1.31,3.34-1.37,4.67-.12h0c.68.64,1.02,1.51,1.02,2.37h0c0,.83-.29,1.64-.91,2.29h0c-.64.68-1.52,1.02-2.39,1.02h0c-.81,0-1.62-.31-2.26-.91ZM354.06,611.11h0c-.44-.58-.68-1.27-.68-1.97h0c-.02-1,.44-2.01,1.29-2.66h0c1.45-1.1,3.53-.81,4.63.62v.02c.44.58.68,1.27.68,1.97h0c.02,1-.44,1.99-1.29,2.64h0c-.6.46-1.31.7-2.01.7h0c-.98,0-1.97-.46-2.62-1.31ZM641.41,611.61c-.87-.66-1.31-1.66-1.29-2.66h0c0-.68.21-1.37.67-1.97h0c1.1-1.45,3.16-1.74,4.61-.62h0c.87.66,1.31,1.64,1.31,2.64h0c-.02.7-.23,1.39-.68,1.97h0c-.66.87-1.64,1.31-2.62,1.31h0c-.71,0-1.41-.21-2.01-.67ZM342.89,594.69c-.33-.52-.48-1.12-.48-1.7h0c.02-1.12.58-2.2,1.6-2.84h0c1.56-.93,3.59-.42,4.53,1.14h0c.33.52.48,1.12.48,1.7h0c0,1.12-.58,2.2-1.6,2.82h0c-.54.33-1.12.48-1.7.48h0c-1.12,0-2.22-.56-2.84-1.6ZM652.66,595.68c-1.02-.62-1.58-1.7-1.6-2.82h0c0-.58.15-1.18.48-1.72h0c.94-1.56,2.97-2.06,4.53-1.12h0c1.02.62,1.6,1.7,1.6,2.82h0c0,.58-.15,1.18-.48,1.72h0c-.62,1.02-1.72,1.6-2.84,1.6h0c-.58,0-1.16-.15-1.7-.48ZM333.57,577.17c-.21-.44-.31-.91-.31-1.35h0c-.02-1.25.69-2.47,1.91-3.03h0c1.66-.77,3.61-.06,4.38,1.6h0c.21.44.31.91.31,1.35h0c.02,1.25-.69,2.47-1.91,3.03h0c-.44.21-.93.31-1.39.31h0c-1.25,0-2.43-.69-2.99-1.91ZM662.13,578.62c-1.22-.56-1.93-1.77-1.91-3.03h0c0-.44.1-.91.29-1.35h0c.77-1.66,2.74-2.37,4.4-1.6h0c1.22.56,1.91,1.76,1.91,3.01h0c0,.46-.1.93-.31,1.37h0c-.56,1.19-1.76,1.91-2.99,1.91h0c-.48,0-.95-.1-1.39-.31ZM326.2,558.73c-.14-.35-.19-.7-.19-1.06h0c.02-1.37.89-2.64,2.26-3.13h0c1.72-.58,3.59.35,4.19,2.08h0c.12.35.17.71.17,1.06h0c0,1.37-.87,2.66-2.24,3.13h0c-.37.11-.71.17-1.06.17h0c-1.39,0-2.66-.87-3.12-2.26ZM669.69,560.64c-1.39-.46-2.26-1.76-2.26-3.13h0c0-.35.06-.71.17-1.06h0c.58-1.72,2.45-2.66,4.19-2.06h0c1.37.46,2.24,1.74,2.24,3.11h0c0,.37-.06.71-.17,1.06h0c-.46,1.39-1.76,2.26-3.13,2.26h0c-.35,0-.69-.06-1.04-.17ZM320.87,539.61c-.06-.25-.08-.5-.08-.75h0c0-1.51,1.06-2.86,2.58-3.18h0c1.78-.41,3.55.73,3.94,2.51h0c.06.25.08.5.08.75h0c-.02,1.51-1.06,2.85-2.58,3.18h0c-.25.06-.48.08-.71.08h0c-1.52,0-2.89-1.04-3.22-2.58ZM675.23,541.94c-1.52-.35-2.57-1.7-2.58-3.2h0c0-.23.02-.48.08-.73h0c.39-1.77,2.14-2.91,3.94-2.53h0c1.52.35,2.57,1.68,2.58,3.18h0c0,.25-.02.5-.08.75h0c-.33,1.54-1.7,2.6-3.22,2.6h0c-.23,0-.46-.04-.71-.08ZM317.67,520.01c-.02-.11-.02-.21-.02-.33h0c-.02-1.68,1.24-3.13,2.93-3.3h0c1.81-.21,3.45,1.1,3.65,2.91h0c0,.12.02.23.02.35h0c0,1.66-1.25,3.1-2.95,3.3h0c-.12.02-.23.02-.35.02h0c-1.68,0-3.11-1.25-3.28-2.95ZM678.72,522.75c-1.7-.17-2.97-1.62-2.95-3.3h0c0-.11,0-.21.02-.33h0c.19-1.81,1.83-3.13,3.65-2.93h0c1.68.17,2.95,1.62,2.93,3.3h0c0,.11,0,.21-.02.33h0c-.17,1.7-1.6,2.95-3.28,2.95h0c-.12,0-.23,0-.35-.02ZM316.59,500.2c-.02-1.83,1.47-3.3,3.28-3.3h0c1.83-.02,3.32,1.47,3.32,3.3h0c0,1.81-1.49,3.3-3.3,3.3h0c-1.83,0-3.3-1.49-3.3-3.3ZM676.81,500v-.19h0v-.17h0c0-1.83,1.47-3.32,3.3-3.32h0c1.81,0,3.3,1.48,3.3,3.3h0v.19h0v.19h0c0,1.83-1.49,3.3-3.3,3.3h0c-1.81,0-3.3-1.47-3.3-3.3ZM320.55,484.01c-1.7-.19-2.95-1.62-2.95-3.3h0c0-.11.02-.21.02-.33h0c.19-1.81,1.83-3.12,3.65-2.95h0c1.7.19,2.95,1.64,2.95,3.3h0c0,.11-.02.23-.02.35h0c-.19,1.7-1.62,2.95-3.3,2.95h0c-.12,0-.23,0-.35-.02ZM675.75,480.52c-.02-.11-.02-.23-.02-.33h0c-.02-1.68,1.23-3.13,2.93-3.32h0c1.81-.19,3.45,1.12,3.65,2.93h0c.02.12.02.21.02.33h0c.02,1.68-1.24,3.13-2.93,3.3h0c-.14.02-.25.04-.37.04h0c-1.66,0-3.11-1.25-3.28-2.95ZM323.31,464.7c-1.54-.33-2.6-1.72-2.59-3.26h0c0-.21.02-.44.06-.66h0v-.02h0c.41-1.77,2.16-2.89,3.94-2.51h0c1.54.33,2.58,1.68,2.6,3.18h0c0,.25-.02.5-.08.73h0c-.35,1.56-1.72,2.6-3.22,2.6h0c-.23,0-.46-.02-.71-.08ZM672.62,461.63c-.04-.25-.08-.5-.08-.73h0c.02-1.51,1.06-2.86,2.6-3.2h0c1.77-.39,3.53.73,3.94,2.51h0v.02h0c.06.23.08.48.08.73h0c-.02,1.5-1.06,2.85-2.58,3.18h0c-.25.06-.48.08-.71.08h0c-1.52,0-2.89-1.04-3.24-2.58ZM328.15,445.81c-1.37-.46-2.26-1.76-2.26-3.13h0c0-.35.06-.71.17-1.06h0c.58-1.72,2.45-2.66,4.19-2.08h0c1.37.46,2.26,1.76,2.26,3.13h0c0,.35-.06.71-.17,1.06h0c-.46,1.37-1.76,2.26-3.14,2.26h0c-.35,0-.69-.06-1.04-.17ZM667.49,443.2h0c-.12-.35-.17-.71-.17-1.06h0c0-1.37.85-2.66,2.24-3.13h0c1.72-.58,3.61.35,4.19,2.06h0c.12.35.17.71.17,1.06h0c0,1.37-.87,2.66-2.24,3.13h0c-.35.11-.71.17-1.06.17h0c-1.37,0-2.66-.87-3.12-2.24ZM335.02,427.54c-1.22-.56-1.93-1.76-1.91-3.01h0c0-.46.1-.93.31-1.37h0c.75-1.66,2.72-2.37,4.38-1.6h0c1.22.56,1.93,1.75,1.91,3.03h0c0,.44-.1.91-.31,1.35h0c-.56,1.2-1.76,1.91-2.99,1.91h0c-.46,0-.94-.1-1.39-.31ZM660.37,425.44c-.21-.44-.31-.91-.31-1.35h0c-.02-1.25.69-2.47,1.89-3.03h0c1.66-.77,3.63-.06,4.4,1.6h0c.19.43.31.89.31,1.35h0c.02,1.25-.69,2.47-1.91,3.03h0c-.44.21-.93.31-1.39.31h0c-1.25,0-2.43-.71-2.99-1.91ZM343.83,410.14c-1.02-.62-1.6-1.7-1.6-2.82h0c0-.58.15-1.18.46-1.7h0c.94-1.58,2.97-2.08,4.53-1.14h0c1.04.62,1.6,1.7,1.6,2.82h0c0,.58-.14,1.18-.46,1.72h0c-.62,1.02-1.72,1.6-2.84,1.6h0c-.58,0-1.16-.15-1.7-.48ZM651.36,408.55c-.33-.52-.48-1.12-.48-1.7h0c0-1.12.56-2.22,1.58-2.84h0c1.56-.94,3.59-.44,4.53,1.12h0c.33.54.48,1.12.48,1.72h0c0,1.1-.56,2.2-1.58,2.82h0c-.54.33-1.14.48-1.72.48h0c-1.12,0-2.2-.58-2.82-1.6ZM354.48,393.79c-.87-.66-1.31-1.64-1.31-2.64h0c0-.69.23-1.39.67-1.99h0c1.1-1.45,3.16-1.74,4.63-.62h0c.85.64,1.31,1.64,1.29,2.64h0c0,.7-.21,1.39-.66,1.97h-.02c-.64.87-1.62,1.31-2.62,1.31h0c-.7,0-1.39-.21-1.99-.68ZM640.58,392.75c-.46-.6-.68-1.29-.68-1.97h0c-.02-1,.42-2.01,1.29-2.66h0c1.45-1.12,3.51-.83,4.63.62h0c.44.58.66,1.27.67,1.97h0c0,1-.44,2.01-1.29,2.66h0c-.6.44-1.31.67-2.01.67h0c-1,0-1.99-.44-2.62-1.29ZM366.81,378.69c-.68-.64-1.02-1.5-1.02-2.37h0c0-.83.29-1.64.89-2.28h0c1.25-1.33,3.36-1.39,4.67-.14h0c.69.64,1.04,1.51,1.04,2.37h0c0,.83-.29,1.64-.91,2.3h0c-.64.67-1.52,1.02-2.39,1.02h0c-.81,0-1.64-.29-2.28-.91ZM628.15,378.19h0c-.62-.64-.91-1.47-.91-2.28h0c0-.89.35-1.76,1.02-2.39h0c1.31-1.25,3.41-1.2,4.67.11h0c.6.64.91,1.47.91,2.28h0c0,.87-.35,1.74-1.02,2.39h0c-.64.62-1.47.91-2.28.91h0c-.87,0-1.76-.35-2.39-1.02ZM380.7,365.01c-.52-.62-.79-1.39-.79-2.16h0c.02-.93.41-1.85,1.18-2.49h0c1.39-1.18,3.47-1.02,4.65.37h0c.54.64.79,1.41.79,2.16h0c-.02.93-.41,1.85-1.16,2.49v.02c-.64.52-1.39.77-2.14.77h0c-.94,0-1.87-.39-2.53-1.16ZM614.22,365.05h0c-.75-.66-1.16-1.56-1.16-2.49h0c-.02-.77.25-1.54.77-2.18h0c1.2-1.39,3.26-1.56,4.67-.39h0c.75.66,1.16,1.56,1.16,2.49h0c0,.77-.25,1.54-.79,2.18h0c-.64.77-1.58,1.16-2.51,1.16h0c-.75,0-1.51-.25-2.14-.77ZM396,352.89c-.39-.56-.58-1.19-.58-1.83h0c0-1.06.5-2.1,1.45-2.76h0c1.5-1.02,3.55-.64,4.57.89h0c.39.56.58,1.2.58,1.83h0c0,1.06-.5,2.1-1.45,2.74h0c-.56.39-1.22.58-1.85.58h0c-1.06,0-2.08-.5-2.72-1.45ZM598.98,353.47c-.94-.64-1.45-1.68-1.45-2.74h0c0-.64.17-1.27.56-1.85h0c1.02-1.51,3.07-1.91,4.57-.87h.02c.95.64,1.45,1.68,1.45,2.74h0c0,.64-.19,1.27-.56,1.83h0c-.66.94-1.7,1.45-2.76,1.45h0c-.64,0-1.27-.18-1.83-.56ZM412.48,342.51c-.25-.5-.39-1.04-.39-1.58h0c.02-1.18.66-2.3,1.76-2.89h0c1.6-.87,3.61-.25,4.48,1.37h0c.25.5.39,1.04.39,1.56h0c-.02,1.18-.66,2.32-1.76,2.89h0c-.5.27-1.02.39-1.54.39h0c-1.18,0-2.33-.64-2.93-1.74ZM582.56,343.61c-1.1-.58-1.74-1.72-1.76-2.89h0c0-.52.12-1.06.39-1.56h0c.85-1.62,2.86-2.24,4.46-1.39h0c1.1.6,1.76,1.72,1.76,2.89h0c.02.54-.12,1.08-.39,1.58h0c-.58,1.12-1.74,1.76-2.91,1.76h0c-.52,0-1.04-.14-1.54-.39ZM430.01,333.95c-.15-.39-.23-.79-.23-1.2h0c-.02-1.31.77-2.57,2.06-3.09h0c1.7-.68,3.63.13,4.3,1.83h0c.15.41.23.81.23,1.22h0c0,1.31-.77,2.57-2.08,3.09h.02c-.41.15-.83.23-1.23.23h0c-1.31,0-2.55-.79-3.07-2.08ZM565.18,335.59c-1.29-.5-2.08-1.76-2.08-3.07h0c0-.41.08-.81.23-1.22h0c.68-1.7,2.58-2.53,4.28-1.85h0c1.29.52,2.08,1.76,2.08,3.09h0c0,.41-.08.81-.23,1.2h0c-.52,1.29-1.76,2.08-3.07,2.08h0c-.41,0-.81-.06-1.22-.23ZM448.36,327.37c-.08-.31-.12-.62-.12-.91h0c0-1.43.96-2.76,2.41-3.17h0c1.76-.48,3.59.54,4.07,2.3h0c.08.31.12.6.12.91h0c0,1.45-.94,2.76-2.41,3.17h0c-.29.08-.6.11-.89.11h0c-1.45,0-2.76-.95-3.18-2.41ZM547.03,329.51c-1.45-.41-2.41-1.72-2.43-3.15h0c0-.31.04-.62.13-.91h0c.48-1.76,2.3-2.8,4.05-2.32h0c1.45.41,2.41,1.72,2.43,3.17h0c0,.29-.04.6-.12.91h0c-.41,1.47-1.74,2.41-3.18,2.41h0c-.29,0-.6-.04-.89-.11ZM467.33,322.82c-.02-.17-.04-.33-.04-.5h0c-.02-1.6,1.14-3.03,2.76-3.3h0c1.79-.29,3.49.93,3.8,2.74h0c.02.15.04.33.04.5h0c.02,1.6-1.14,3.01-2.76,3.28h0c-.19.04-.37.04-.54.04h0c-1.58,0-2.99-1.14-3.26-2.76ZM528.33,325.46c-1.64-.27-2.8-1.68-2.78-3.3h0c0-.15.02-.33.04-.5h0c.29-1.79,1.99-3.03,3.78-2.72h0c1.64.25,2.8,1.68,2.78,3.28h0c0,.15-.02.33-.04.5h0c-.27,1.62-1.66,2.78-3.26,2.78h0c-.17,0-.35-.02-.52-.04ZM486.68,320.35c-.02-.06-.02-.12-.02-.18h0c0-1.74,1.37-3.2,3.12-3.3h0c1.81-.11,3.38,1.29,3.49,3.11h0v.17h0c0,1.76-1.37,3.2-3.12,3.3h0c-.06.02-.12.02-.19.02h0c-1.74,0-3.18-1.37-3.28-3.12ZM509.29,323.43c-1.76-.1-3.13-1.56-3.13-3.3h0v-.17h0c.1-1.81,1.66-3.22,3.47-3.13h0c1.77.1,3.13,1.54,3.13,3.3h0v.17h0c-.1,1.76-1.54,3.13-3.3,3.13h-.17Z"/>
  <g>
    <path class="cls-3" d="M555.82,565.08c-27.72.22-83.52.63-111.23.71,0,0-1.79,0-1.79,0l1.3-1.23c38.93-37,117.48-111.24,156.61-148.02,0,0,.62,1.57.62,1.57-52.81.01-127-.5-179.05-.9,51.77-.65,126.52-.68,179.05-.91,0,0,2.29,0,2.29,0l-1.67,1.57-78.33,73.98-78.55,73.75-.49-1.22c27.73.07,83.51.48,111.23.71h0Z"/>
    <path class="cls-3" d="M444.18,434.92c27.72-.22,83.52-.63,111.23-.71,0,0,1.79,0,1.79,0l-1.3,1.23c-38.93,37-117.48,111.24-156.61,148.02,0,0-.62-1.57-.62-1.57,52.81-.01,127,.5,179.05.9-51.77.65-126.52.68-179.05.91,0,0-2.29,0-2.29,0l1.67-1.57,78.33-73.98,78.55-73.75.49,1.23c-27.73-.07-83.51-.48-111.23-.71h0Z"/>
    <polygon class="cls-1" points="533.86 522.07 522.11 535.21 555.14 564.75 444.48 564.75 600.43 417.62 422.28 417.62 422.28 417.62 399.18 417.62 466.65 477.93 478.41 464.79 445.37 435.25 556.04 435.25 400.09 582.38 422.27 582.38 578.24 582.38 601.33 582.38 533.86 522.07"/>
  </g>
</svg>